HIERARCHY
ROOT Hips
{
	OFFSET -3.958830 18.904000 13.208200
	CHANNELS 6 Xposition Yposition Zposition Zrotation Yrotation Xrotation 
	JOINT LHipJoint
	{
		OFFSET 0.000000 0.000000 0.000000
		CHANNELS 3 Zrotation Yrotation Xrotation
		JOINT LeftUpLeg
		{
			OFFSET 1.800000 -1.400000 0.085000
			CHANNELS 3 Zrotation Yrotation Xrotation
			JOINT LeftLeg
			{
				OFFSET 2.215000 -6.000000 0.000000
				CHANNELS 3 Zrotation Yrotation Xrotation
				JOINT LeftFoot
				{
					OFFSET 2.500000 -6.900000 0.000000
					CHANNELS 3 Zrotation Yrotation Xrotation
					JOINT LeftToeBase
					{
						OFFSET 0.200000 -0.500000 1.950000
						CHANNELS 3 Zrotation Yrotation Xrotation
						End Site
						{
							OFFSET 0.000000 0.000000 0.000000
						}
					}
				}
			}
		}
	}
	JOINT RHipJoint
	{
		OFFSET 0.000000 0.000000 0.000000
		CHANNELS 3 Zrotation Yrotation Xrotation
		JOINT RightUpLeg
		{
			OFFSET -1.800000 -1.400000 0.085000
			CHANNELS 3 Zrotation Yrotation Xrotation
			JOINT RightLeg
			{
				OFFSET -2.215000 -6.000000 0.000000
				CHANNELS 3 Zrotation Yrotation Xrotation
				JOINT RightFoot
				{
					OFFSET -2.500000 -6.900000 0.000000
					CHANNELS 3 Zrotation Yrotation Xrotation
					JOINT RightToeBase
					{
						OFFSET -0.200000 -0.500000 1.950000
						CHANNELS 3 Zrotation Yrotation Xrotation
						End Site
						{
							OFFSET 0.000000 0.000000 0.000000
						}
					}
				}
			}
		}
	}
	JOINT LowerBack
	{
		OFFSET 0.000000 0.000000 0.000000
		CHANNELS 3 Zrotation Yrotation Xrotation
		JOINT Spine
		{
			OFFSET -0.087000 1.940000 -0.288900
			CHANNELS 3 Zrotation Yrotation Xrotation
			JOINT Spine1
			{
				OFFSET 0.000000 1.950000 0.060000
				CHANNELS 3 Zrotation Yrotation Xrotation
				JOINT Neck
				{
					OFFSET 0.000000 0.000000 0.000000
					CHANNELS 3 Zrotation Yrotation Xrotation
					JOINT Neck1
					{
						OFFSET 0.000000 1.600000 0.340000
						CHANNELS 3 Zrotation Yrotation Xrotation
						JOINT Head
						{
							OFFSET 0.000000 1.667000 -0.240000
							CHANNELS 3 Zrotation Yrotation Xrotation
							End Site
							{
								OFFSET 0.000000 0.000000 0.000000
							}
						}
					}
				}
				JOINT LeftShoulder
				{
					OFFSET 0.000000 0.000000 0.000000
					CHANNELS 3 Zrotation Yrotation Xrotation
					JOINT LeftArm
					{
						OFFSET 2.700000 1.550000 -0.730000
						CHANNELS 3 Zrotation Yrotation Xrotation
						JOINT LeftForeArm
						{
							OFFSET 5.450000 0.000000 0.000000
							CHANNELS 3 Zrotation Yrotation Xrotation
							JOINT LeftHand
							{
								OFFSET 3.450000 0.000000 0.000000
								CHANNELS 3 Zrotation Yrotation Xrotation
								JOINT LeftHandIndex1
								{
									OFFSET 0.750000 0.000000 0.000000
									CHANNELS 3 Zrotation Yrotation Xrotation
									End Site
									{
										OFFSET 0.000000 0.000000 0.000000
									}
								}
							}
						}
					}
				}
				JOINT RightShoulder
				{
					OFFSET 0.000000 0.000000 0.000000
					CHANNELS 3 Zrotation Yrotation Xrotation
					JOINT RightArm
					{
						OFFSET -2.700000 1.550000 -0.730000
						CHANNELS 3 Zrotation Yrotation Xrotation
						JOINT RightForeArm
						{
							OFFSET -5.450000 0.000000 0.000000
							CHANNELS 3 Zrotation Yrotation Xrotation
							JOINT RightHand
							{
								OFFSET -3.450000 0.000000 0.000000
								CHANNELS 3 Zrotation Yrotation Xrotation
								JOINT RightHandIndex1
								{
									OFFSET -0.750000 0.000000 0.000000
									CHANNELS 3 Zrotation Yrotation Xrotation
									End Site
									{
										OFFSET 0.000000 0.000000 0.000000
									}
								}
							}
						}
					}
				}
			}
		}
	}
}
MOTION
Frames: 10
Frame Time: 0.016667
-0.607890 16.141200 -2.142050 -4.226606 12.750753 5.294979 -15.555785 10.438327 6.071562 23.032541 -6.730789 -50.366633 -9.968337 15.898644 48.961027 0.107527 10.525165 0.912728 0.751540 0.190100 0.666750 18.463270 -8.727901 3.170616 -16.585805 6.959511 -40.029309 2.978402 -10.884640 50.354156 -0.980362 -7.473863 1.829993 0.180260 0.118860 0.141170 -3.379902 -1.457398 -9.513647 8.374773 -0.750332 36.663829 -5.626562 4.710671 -5.227930 1.912475 -1.638572 -8.879723 -3.635001 -6.139843 26.942395 4.077810 -6.137970 -22.456070 -26.457300 -11.450183 0.453138 -21.211288 -2.253444 -5.610125 -44.851905 -31.997961 9.399388 -3.437926 3.096251 0.901110 -0.082140 -0.000490 0.240700 22.087795 15.585545 7.880370 34.805440 -3.740167 -11.234349 50.228243 31.533189 7.505826 1.892078 -1.663707 -0.312180 0.345870 -0.169630 -0.404160 
-0.624080 16.102930 -2.124020 -4.429580 12.734191 4.292202 -15.557504 10.470443 6.023419 23.244789 -6.420479 -49.960507 -9.354830 16.167115 50.313602 0.192281 10.684473 0.846325 0.770770 0.228180 0.663240 18.458105 -8.690455 3.222499 -17.041880 7.271656 -39.720081 3.917844 -11.765392 51.868996 -1.083657 -7.859154 1.712587 0.174400 0.074750 0.151640 -3.369406 -1.487544 -9.565586 8.774017 -0.721226 37.282655 -5.815413 5.022776 -5.537871 2.172539 -1.751129 -8.925896 -4.076128 -6.097331 28.199148 4.011990 -6.147190 -22.765780 -27.542876 -11.405038 0.389309 -22.681401 -2.028912 -6.029961 -38.602544 -32.008637 7.769474 -3.392527 3.096140 0.895710 -0.105740 0.029530 0.246830 22.616572 15.959609 8.010387 35.072435 -3.708628 -11.331980 46.900846 30.995881 6.625128 1.902504 -1.652939 -0.267760 0.302430 -0.194020 -0.391780 
-0.648670 16.026500 -2.080270 -5.086911 13.295838 2.043636 -15.526778 10.494854 5.961213 23.742322 -6.010622 -49.416253 -7.734404 16.487767 53.416522 0.389061 11.012079 0.722812 0.794580 0.280540 0.639370 18.478453 -8.694813 3.267780 -17.527578 7.590866 -38.745704 5.313981 -13.543106 54.915906 -1.286030 -8.627681 1.482611 0.146630 0.008120 0.169990 -3.451362 -1.429712 -9.681166 10.330757 -1.556825 37.769060 -6.610033 4.979835 -5.574023 2.453365 -1.814356 -9.231535 -4.926880 -5.569603 31.846995 5.036960 -6.532300 -21.819240 -29.066669 -11.899557 0.802466 -24.913666 -1.022655 -6.895703 -28.789805 -31.697966 5.169986 -3.297898 3.138103 0.863620 -0.147350 0.068310 0.259000 23.480788 16.724973 8.140158 36.131301 -3.078014 -11.384058 40.880595 30.064986 5.226920 1.941568 -1.641249 -0.174290 0.210280 -0.232990 -0.353750 
-0.686320 15.928680 -2.002440 -5.038250 12.847159 -0.242978 -15.532924 10.622792 5.802441 23.807328 -5.256629 -48.218545 -5.771048 16.985857 56.850056 0.561652 11.446062 0.582691 0.809100 0.304550 0.653530 18.455047 -8.674508 3.341995 -18.253506 8.119672 -37.847901 6.194432 -15.198124 58.589852 -1.518192 -9.446579 1.251961 0.125560 -0.039350 0.177380 -3.406946 -1.503381 -9.767362 10.217276 -0.995964 37.396947 -6.122137 5.335975 -5.360943 2.609879 -1.487393 -9.244347 -5.101011 -5.042108 35.931918 5.061180 -6.406690 -21.143620 -30.083731 -11.400254 1.043664 -28.574475 -0.041491 -7.768190 -19.166593 -31.362500 2.714114 -3.246128 3.090486 0.869050 -0.175870 0.111110 0.261720 24.207688 16.398661 7.858366 37.908262 -2.366188 -11.475526 33.866207 30.241370 4.220515 1.957387 -1.580728 -0.130820 0.174560 -0.262770 -0.345510 
-0.722050 15.843660 -1.904950 -4.903396 12.117611 -2.663398 -15.516977 10.841759 5.621429 23.916314 -4.296838 -46.473713 -3.813693 17.351294 59.894641 0.704872 11.828738 0.451628 0.789910 0.287560 0.631140 18.428549 -8.793181 3.316266 -18.179683 8.616545 -36.133629 5.763093 -15.872969 61.743192 -1.676777 -9.991387 1.115219 0.088370 -0.064370 0.175420 -3.404230 -1.522160 -9.795370 10.423638 -0.411779 36.485336 -5.669397 5.776499 -5.420558 2.578354 -1.688038 -9.274262 -6.233520 -3.997460 40.742599 5.831160 -6.628960 -20.069010 -30.858510 -10.284640 1.017303 -32.609308 0.707228 -8.359638 -10.889628 -29.913753 0.594908 -3.229952 3.018165 0.880990 -0.198600 0.129240 0.248400 25.095326 15.717042 7.722065 40.385023 -2.715686 -12.220979 27.618704 31.683980 3.536338 1.949019 -1.518102 -0.105140 0.151400 -0.252910 -0.339630 
-0.745780 15.740600 -1.778160 -4.745561 11.779012 -4.308278 -15.497342 10.895913 5.537886 24.370604 -3.491105 -45.521980 -2.349840 18.113250 63.179236 0.931909 12.307369 0.330212 0.818920 0.324460 0.642590 18.433865 -8.884752 3.259902 -18.642142 8.546346 -34.517313 6.073947 -17.186797 64.339296 -1.845677 -10.576874 0.958269 0.083870 -0.089470 0.164210 -3.445455 -1.414818 -9.833850 10.671180 0.184979 33.468681 -4.788576 5.790026 -5.450259 2.296511 -2.067749 -8.519117 -7.405680 -2.764334 44.743672 6.623760 -6.869710 -17.410720 -30.629337 -6.975693 0.240702 -37.598628 0.540228 -8.518006 -5.112324 -28.233047 -0.708383 -3.215909 2.989814 0.848240 -0.221250 0.143180 0.274430 25.414029 12.689475 6.720634 43.112645 -3.003540 -12.713266 23.465373 33.472914 3.186216 1.988321 -1.540504 -0.062920 0.117180 -0.304470 -0.312230 
-0.748640 15.646170 -1.649130 -4.569933 12.110166 -5.580603 -15.439468 10.929591 5.413978 24.034753 -3.254186 -44.848343 -0.124872 17.867001 66.160697 1.060250 12.597014 0.271208 0.786940 0.289800 0.621140 18.463789 -9.097638 3.182242 -19.621899 7.890151 -32.789896 6.494700 -18.562257 65.790270 -1.941769 -11.017003 0.856116 0.059490 -0.084290 0.142080 -3.586301 -1.104576 -9.819921 11.581605 0.735753 29.834677 -4.772168 5.789895 -5.743279 2.379481 -1.559432 -7.822138 -6.693457 -2.857263 48.339866 5.824960 -7.288940 -13.971280 -29.498539 -3.253088 -0.781041 -42.222451 -0.134689 -8.349185 -1.639008 -26.755629 -1.388696 -3.257506 2.908017 0.829160 -0.207020 0.126630 0.281200 23.999791 8.477020 5.721555 48.227734 -4.023850 -14.061422 20.210488 36.802913 2.940725 1.998256 -1.526061 -0.070910 0.108300 -0.312020 -0.308540 
-0.749450 15.570790 -1.519690 -4.601991 11.891075 -7.345907 -15.378113 11.112502 5.183954 23.787798 -2.732359 -43.085354 2.159350 17.263994 68.462753 1.163938 12.737971 0.247150 0.791960 0.285140 0.645320 18.474513 -9.367850 3.081708 -19.874647 7.554367 -30.420792 6.424029 -19.311772 67.061219 -2.033587 -11.310026 0.797982 0.041310 -0.108150 0.135720 -3.709988 -0.873260 -9.721249 12.568507 1.324825 26.938878 -4.562459 5.946470 -5.949181 2.598319 -1.096200 -7.350197 -5.802541 -2.910592 51.513554 4.504060 -6.995240 -11.393110 -28.249324 0.396993 -1.619819 -46.482541 0.084319 -8.738846 0.079615 -27.151191 -1.765885 -3.263342 2.865121 0.821800 -0.206070 0.134610 0.288170 22.228137 4.441279 4.845157 52.106165 -4.725171 -14.845322 19.563787 39.183959 3.150572 2.017196 -1.531351 -0.058450 0.084250 -0.341890 -0.314880 
-0.752300 15.519150 -1.393600 -4.627567 12.194548 -9.630635 -15.280839 11.368011 4.865278 23.264321 -2.444066 -40.734305 4.823968 15.870537 70.264923 1.176937 12.732807 0.260574 0.809440 0.284740 0.673270 18.500403 -9.756537 2.917579 -20.246971 6.944143 -26.977403 6.450701 -19.902228 67.517217 -2.099914 -11.469044 0.769688 0.047480 -0.117470 0.120140 -3.922190 -0.589606 -9.518079 13.757003 1.669131 24.133138 -4.676789 5.823431 -5.212113 2.766032 -0.778381 -7.059108 -5.140119 -2.803020 54.959982 3.856170 -6.804000 -9.623400 -26.589913 3.366266 -2.223150 -50.416878 -0.056962 -8.948532 0.519646 -27.047802 -1.998029 -3.265422 2.796446 0.853420 -0.210850 0.141640 0.301630 20.157443 0.877007 4.125936 55.825509 -4.752687 -15.327118 19.934697 40.697967 3.444154 2.019391 -1.520361 -0.081330 0.095240 -0.364210 -0.333040 
-0.769020 15.483490 -1.272340 -5.185993 11.807376 -11.870183 -15.163078 11.591372 4.548121 23.852055 -1.498948 -38.042552 6.769882 14.985396 71.109223 1.163440 12.759119 0.259054 0.746160 0.193860 0.647920 18.566685 -10.088307 2.780929 -19.425050 6.907418 -23.830791 5.930591 -19.944548 68.371298 -2.139473 -11.587795 0.758699 0.011260 -0.081660 0.105170 -4.215064 -0.282667 -9.295845 15.752469 1.765037 21.206450 -4.902689 5.551126 -4.084264 2.837904 -1.034835 -7.335553 -5.391615 -2.212898 58.504256 2.627240 -6.535910 -6.995130 -24.140869 5.728809 -2.106625 -54.620202 1.067436 -9.883155 0.612276 -28.888208 -2.257635 -3.301997 2.699838 0.881940 -0.188770 0.117550 0.280670 17.425393 -1.595904 3.961271 59.461574 -4.385247 -15.659040 20.948247 42.391334 4.024186 2.005032 -1.472766 -0.131980 0.132450 -0.313100 -0.354830 
